<svg width="80px" height="80px" viewBox="0 0 80 80" xmlns="http://www.w3.org/2000/svg">
 	<style>
		.fr-artwork-major {
			fill: #8585f6;
		}
    .fr-artwork-minor {
			fill: #E1000F;
		}
    .fr-artwork-decorative {
			fill: #21213f;
		}
	</style>
  <g class="fr-artwork-decorative" id="artwork-decorative">
    <path d="M40.05,63c-1.2,0-2.4-0.09-3.61-0.28c-0.55-0.09-0.92-0.6-0.83-1.14c0.09-0.55,0.6-0.91,1.14-0.83 c5.54,0.87,11.09-0.47,15.62-3.78c0.45-0.33,1.07-0.23,1.4,0.22c0.33,0.45,0.23,1.07-0.22,1.4C49.57,61.49,44.88,63,40.05,63z" />
  </g>
  <g class="fr-artwork-minor" id="artwork-minor">
    <path d="M48.82,39.9c-0.07,0-0.14,0-0.22-0.01c-0.85-0.09-1.54-0.69-1.74-1.53c-0.3-1.27-0.95-2.43-1.87-3.35 s-2.08-1.57-3.35-1.87c-0.54-0.13-0.87-0.67-0.74-1.21c0.13-0.54,0.67-0.87,1.21-0.74c1.63,0.39,3.11,1.22,4.3,2.41 s2.02,2.67,2.41,4.3l6.02-12.73l-8.17,3.87c-0.5,0.24-1.09,0.02-1.33-0.48c-0.24-0.5-0.02-1.1,0.48-1.33l10.7-5.07 c0.38-0.18,0.84-0.1,1.13,0.2c0.3,0.3,0.38,0.75,0.2,1.14l-7.23,15.26C50.28,39.46,49.59,39.89,48.82,39.9z" />
  </g>
  <g class="fr-artwork-major" id="artwork-major">
    <path class="fr-artwork-major" d="M40,69c-15.99,0-29-13.01-29-29c0-15.99,13.01-29,29-29c15.99,0,29,13.01,29,29c0,5.24-1.42,10.38-4.09,14.86 c-0.28,0.47-0.9,0.63-1.37,0.35c-0.47-0.28-0.63-0.9-0.35-1.37C65.68,49.67,67,44.88,67,40c0-14.89-12.11-27-27-27S13,25.11,13,40 s12.11,27,27,27c7.21,0,13.99-2.81,19.09-7.91c0.39-0.39,1.02-0.39,1.41,0s0.39,1.02,0,1.41C55.03,65.98,47.75,69,40,69z" />
    <path class="fr-artwork-major" d="M8,41c-0.55,0-1-0.45-1-1c0-5.63,1.44-11.19,4.18-16.08c0.27-0.48,0.88-0.65,1.36-0.39 c0.48,0.27,0.65,0.88,0.39,1.36C10.36,29.49,9,34.71,9,40C9,40.55,8.55,41,8,41z" />
    <path class="fr-artwork-major" d="M40,45.06c-2.79,0-5.06-2.27-5.06-5.06c0-2.79,2.27-5.06,5.06-5.06c2.79,0,5.06,2.27,5.06,5.06 C45.06,42.79,42.79,45.06,40,45.06z M40,36.94c-1.69,0-3.06,1.37-3.06,3.06s1.37,3.06,3.06,3.06s3.06-1.37,3.06-3.06 S41.69,36.94,40,36.94z" />
    <path class="fr-artwork-major" d="M23.06,57.94c-0.26,0-0.52-0.1-0.71-0.29c-0.3-0.3-0.38-0.75-0.2-1.13l7.23-15.26 c0.37-0.78,1.16-1.22,2.01-1.13c0.85,0.09,1.54,0.69,1.74,1.53c0.3,1.27,0.95,2.43,1.87,3.35c0.92,0.92,2.08,1.57,3.35,1.87 c0.54,0.13,0.87,0.67,0.74,1.21c-0.13,0.54-0.67,0.87-1.21,0.74c-1.63-0.39-3.11-1.22-4.3-2.41c-1.19-1.19-2.02-2.67-2.4-4.3 l-6.02,12.73l8.64-4.09c0.5-0.23,1.1-0.02,1.33,0.48c0.24,0.5,0.02,1.09-0.48,1.33l-11.17,5.29C23.36,57.9,23.21,57.94,23.06,57.94 z" />
  </g>
</svg>
