<svg width="80" height="80" viewBox="0 0 80 80" fill="none" xmlns="http://www.w3.org/2000/svg">
<path d="M24.9643 38.5694C24.7255 38.5701 24.4939 38.4776 24.3096 38.308C24.1253 38.1384 23.9998 37.9023 23.9549 37.6405C23.9099 37.3786 23.9482 37.1075 24.0633 36.8738C24.1783 36.6402 24.3628 36.4587 24.585 36.3607L28.5528 34.5869C28.6807 34.5313 28.8172 34.5043 28.9544 34.5076C29.0916 34.5109 29.227 34.5443 29.3526 34.6059C29.4783 34.6675 29.5919 34.7562 29.6868 34.8668C29.7818 34.9774 29.8563 35.1079 29.9062 35.2506C29.956 35.3934 29.9801 35.5457 29.9772 35.6989C29.9743 35.8521 29.9443 36.0031 29.8891 36.1434C29.8339 36.2837 29.7545 36.4104 29.6554 36.5165C29.5562 36.6225 29.4394 36.7057 29.3115 36.7613L25.3437 38.5351C25.2196 38.5683 25.0916 38.5798 24.9643 38.5694Z" fill="#293273"/>
<path d="M46.9155 28.7505C46.6766 28.7511 46.4451 28.6587 46.2608 28.4891C46.0765 28.3195 45.951 28.0834 45.906 27.8215C45.8611 27.5597 45.8994 27.2885 46.0144 27.0549C46.1295 26.8212 46.314 26.6397 46.5361 26.5417L50.5142 24.7679C50.7671 24.6556 51.0496 24.66 51.2996 24.7802C51.5495 24.9004 51.7465 25.1265 51.8471 25.4088C51.9477 25.691 51.9437 26.0064 51.836 26.2854C51.7284 26.5644 51.5258 26.7842 51.2729 26.8965L47.3051 28.7505C47.176 28.7734 47.0445 28.7734 46.9155 28.7505Z" fill="#293273"/>
<path d="M48.9355 37.1045L35.5044 33.5683C34.8282 33.4166 34.1821 33.1297 33.5974 32.7214L25.6514 26.7361C25.1696 26.3814 26.0923 25.9579 26.9125 26.1754L40.3539 29.7116C41.025 29.8705 41.6666 30.157 42.2507 30.5585L50.1966 36.5437C50.6785 36.91 49.7557 37.3219 48.9355 37.1045Z" fill="#E10814"/>
<path d="M37.9341 44.3373C31.1467 44.3373 24.3696 43.1929 19.2022 40.9041C14.0348 38.6152 11 35.2507 11 31.6686C11 28.0866 13.922 24.8022 19.2022 22.4332C29.5268 17.8556 46.3311 17.8556 56.6659 22.4332C61.9871 24.8022 64.8681 28.0752 64.8681 31.6686C64.8681 35.2621 61.9358 38.5351 56.6659 40.9041C51.4985 43.1814 44.7214 44.3373 37.9341 44.3373ZM37.9341 21.2202C31.8132 21.1014 25.7237 22.222 19.9609 24.5275C15.542 26.4959 13.0095 29.1052 13.0095 31.6458C13.0095 34.1864 15.5215 36.7613 19.9609 38.7526C29.8754 43.17 45.9927 43.17 55.9072 38.7526C60.3261 36.7842 62.8586 34.1749 62.8586 31.6458C62.8586 29.1166 60.3159 26.4959 55.8969 24.5275C50.1337 22.2239 44.0445 21.1034 37.9238 21.2202H37.9341Z" fill="#293273"/>
<path d="M20.4117 27.8578C20.2777 27.856 20.1453 27.8249 20.0221 27.7663C19.8961 27.7068 19.7813 27.6214 19.6837 27.5145L19.5607 27.3428C19.5201 27.2844 19.4889 27.2186 19.4684 27.1483L19.4069 26.9308C19.3969 26.8588 19.3969 26.7854 19.4069 26.7134C19.4034 26.5596 19.4314 26.4069 19.4889 26.2671C19.5348 26.1283 19.6085 26.0031 19.7043 25.9009C19.7991 25.7902 19.9146 25.7042 20.0426 25.6491C20.2303 25.5629 20.4367 25.5408 20.6356 25.5856C20.8346 25.6304 21.0171 25.7401 21.1601 25.9009C21.2524 26.0063 21.3255 26.1307 21.3755 26.2671C21.433 26.4069 21.461 26.5596 21.4575 26.7134C21.4675 26.7854 21.4675 26.8588 21.4575 26.9308L21.396 27.1483C21.3755 27.2186 21.3443 27.2844 21.3037 27.3428L21.1807 27.5145C21.0809 27.6283 20.961 27.7176 20.8286 27.7767C20.6962 27.8358 20.5542 27.8634 20.4117 27.8578Z" fill="#E10814"/>
<path d="M15.6859 34.3123C15.5411 34.3135 15.3977 34.2805 15.2652 34.2154C15.1326 34.1503 15.0139 34.0546 14.9169 33.9346C14.6258 33.6006 14.4055 33.1979 14.2724 32.7562C14.1394 32.3145 14.0968 31.8451 14.148 31.3826C14.312 29.9864 15.3168 28.6475 17.2238 27.2971C17.4536 27.1332 17.7323 27.0779 17.9986 27.1433C18.2649 27.2088 18.497 27.3896 18.6438 27.6461C18.7906 27.9026 18.8402 28.2137 18.7815 28.5109C18.7229 28.8081 18.5609 29.0672 18.3311 29.2311C16.5164 30.5243 16.2805 31.3712 16.1985 31.6802C16.1861 31.8156 16.204 31.9523 16.2505 32.0781C16.2971 32.2039 16.3708 32.3149 16.4651 32.4011C16.6468 32.626 16.7413 32.922 16.7279 33.2245C16.7144 33.527 16.5941 33.8111 16.3933 34.0148C16.2001 34.2109 15.947 34.3173 15.6859 34.3123Z" fill="#E10814"/>
<path d="M37.9443 61.0001C31.157 61.0001 24.3696 59.8557 19.2125 57.5669C14.0553 55.278 11.0718 52.0508 11.0103 48.5374V41.3391C11.0103 41.0356 11.1183 40.7445 11.3106 40.5299C11.5028 40.3152 11.7636 40.1947 12.0355 40.1947C12.3075 40.1947 12.5682 40.3152 12.7605 40.5299C12.9528 40.7445 13.0608 41.0356 13.0608 41.3391V48.4344C13.1428 50.9407 15.6753 53.4927 20.0224 55.4268C29.9266 59.8328 46.0543 59.8328 55.9584 55.4268C60.4389 53.4355 62.9713 50.8492 62.9201 48.2399V41.0988C62.9201 40.7952 63.0281 40.5042 63.2204 40.2895C63.4127 40.0749 63.6734 39.9543 63.9454 39.9543C64.2173 39.9543 64.4781 40.0749 64.6703 40.2895C64.8626 40.5042 64.9706 40.7952 64.9706 41.0988V48.2056C65.0424 51.8219 62.1204 55.1521 56.7171 57.5554C51.5087 59.8442 44.7214 61.0001 37.9443 61.0001Z" fill="#293273"/>
<path d="M64.9605 56.6743C64.7581 56.6756 64.5598 56.61 64.3908 56.4858C64.2217 56.3616 64.0893 56.1843 64.0104 55.9762C63.9314 55.7682 63.9094 55.5387 63.9471 55.3167C63.9849 55.0947 64.0806 54.8901 64.2223 54.7288C65.8057 53.1576 66.783 50.9636 66.9495 48.6062V46.4432C66.9495 46.1397 67.0576 45.8486 67.2498 45.634C67.4421 45.4194 67.7029 45.2988 67.9748 45.2988C68.2467 45.2988 68.5075 45.4194 68.6998 45.634C68.8921 45.8486 69.0001 46.1397 69.0001 46.4432V48.6062C68.8335 51.5625 67.6464 54.3315 65.6884 56.331C65.5935 56.4391 65.4803 56.5251 65.3553 56.5841C65.2303 56.643 65.0962 56.6737 64.9605 56.6743Z" fill="#293273"/>
<path d="M67.964 43.9252C67.693 43.9187 67.4337 43.8005 67.2361 43.5933C67.0529 43.371 66.9473 43.0826 66.9388 42.7807C66.9353 42.6306 66.9634 42.4817 67.0208 42.3459C67.0742 42.2081 67.1469 42.0806 67.2361 41.9682C67.3565 41.8345 67.5048 41.7362 67.6677 41.6823C67.8305 41.6284 68.0028 41.6204 68.1691 41.6592C68.237 41.6698 68.3028 41.693 68.3639 41.7279C68.426 41.7531 68.4846 41.7878 68.5382 41.8309C68.5926 41.8673 68.6411 41.9138 68.6817 41.9682C68.786 42.0715 68.8668 42.201 68.9175 42.3459C68.962 42.4857 68.9862 42.6325 68.9893 42.7807C68.9888 42.9322 68.9613 43.0819 68.9085 43.2214C68.8557 43.3609 68.7786 43.4873 68.6817 43.5933C68.6411 43.6478 68.5926 43.6942 68.5382 43.7306C68.4846 43.7737 68.426 43.8084 68.3639 43.8336C68.3028 43.8685 68.237 43.8917 68.1691 43.9023L67.964 43.9252Z" fill="#293273"/>
<path d="M15.7675 51.0319C15.4955 51.0319 15.2348 50.9114 15.0425 50.6968C14.8502 50.4821 14.7422 50.1911 14.7422 49.8875V43.8221C14.7422 43.5186 14.8502 43.2275 15.0425 43.0129C15.2348 42.7983 15.4955 42.6777 15.7675 42.6777C16.0394 42.6777 16.3002 42.7983 16.4924 43.0129C16.6847 43.2275 16.7927 43.5186 16.7927 43.8221V49.8875C16.7927 50.1911 16.6847 50.4821 16.4924 50.6968C16.3002 50.9114 16.0394 51.0319 15.7675 51.0319Z" fill="#E10814"/>
<path d="M20.4226 48.537C20.4226 47.9049 19.9636 47.3926 19.3973 47.3926C18.8311 47.3926 18.3721 47.9049 18.3721 48.537V52.0503C18.3721 52.6824 18.8311 53.1947 19.3973 53.1947C19.9636 53.1947 20.4226 52.6824 20.4226 52.0503V48.537Z" fill="#E10814"/>
</svg>
